<svg width="69" height="30" viewBox="0 0 69 30" fill="none" xmlns="http://www.w3.org/2000/svg">
<mask id="mask0" mask-type="alpha" maskUnits="userSpaceOnUse" x="0" y="0" width="69" height="30">
<path fill-rule="evenodd" clip-rule="evenodd" d="M0.00195312 0.00219727H68.5506V29.487H0.00195312V0.00219727Z" fill="white"/>
</mask>
<g mask="url(#mask0)">
<path fill-rule="evenodd" clip-rule="evenodd" d="M60.126 3.82739L56.6975 19.5233L53.2234 3.82739H47.5824L43.5602 19.5233L40.8038 4.69507L34.9648 14.2975L38.8957 29.4871H46.7634L50.2085 14.9453L53.1467 29.4871H61.014L68.5503 3.82739H60.126Z" fill="#2B5597"/>
<path fill-rule="evenodd" clip-rule="evenodd" d="M27.4218 9.94836L21.982 0.00219727H12.0234L22.9909 17.7726V29.487H31.8527V17.7726L42.7323 0.00219727H32.774L27.4218 9.94836Z" fill="#2B5597"/>
<path fill-rule="evenodd" clip-rule="evenodd" d="M17.4065 22.5396C15.5619 22.8617 13.5183 22.6317 11.9554 21.541C11.2438 21.0445 10.6481 20.3919 10.2425 19.623C9.81221 18.807 9.60492 17.8925 9.54974 16.9759C9.49273 16.029 9.59511 15.0648 9.94586 14.1785C10.2723 13.3536 10.8085 12.6267 11.48 12.0494C12.9385 10.7952 14.985 10.3469 16.8701 10.4932C17.1264 10.5131 17.3817 10.5463 17.6348 10.5914L13.512 3.99177C13.4834 3.99067 13.4466 4.00238 13.4216 4.00543C13.2466 4.02683 13.072 4.05029 12.8976 4.07591C12.5543 4.12635 12.2122 4.18508 11.8718 4.25259C11.2096 4.38393 10.5538 4.54849 9.90897 4.74892C8.65916 5.13741 7.4509 5.66182 6.32145 6.32416C5.26348 6.9446 4.27719 7.69 3.41561 8.56444C2.57029 9.42239 1.84452 10.4025 1.28358 11.469C0.684316 12.6084 0.287167 13.8473 0.111884 15.1227C-0.0667024 16.4226 -0.0289294 17.7591 0.206812 19.0494C0.42967 20.2694 0.848036 21.4505 1.45773 22.5311C2.05171 23.5838 2.81917 24.5385 3.70091 25.3638C4.58125 26.1878 5.58038 26.8787 6.64886 27.4356C7.85891 28.0664 9.15414 28.5333 10.4813 28.847C11.0697 28.9862 11.6325 29.0998 12.2371 29.1885C12.8491 29.2785 13.464 29.3485 14.0806 29.3987C14.8983 29.4654 15.714 29.4827 16.5322 29.487H22.1429V19.7696C20.8993 21.1837 19.2762 22.213 17.4065 22.5396Z" fill="#2B5597"/>
</g>
</svg>
